<svg xmlns="http://www.w3.org/2000/svg" viewBox="0 0 64 64">
  <rect width="64" height="64" rx="14" fill="#534AB7"/>
  <path fill="#fff" d="M52 32.5v-3.8c0-.6-.4-1.1-1-1.2l-5.1-1c-1.6-.5-7.9-3.2-10.1-3.7-2.2-.5-12-.7-17 0-1.6.3-8.8 4-13 5.8-1.2 0-13.5 2.6-14.2 4.4-.6 1.8-.9 2.6-1 3.1-.1.5 0 2.6.9 4.1.9.5 2.7.9 4.8 1.1A6.1 6.1 0 0 1 11.9 38a6.1 6.1 0 0 1 12.1.9l30.2-.6a6.1 6.1 0 0 1 6-5.3 6.1 6.1 0 0 1 6.1 6.1v.1l.1-.1 5.2-1c0 0 2-1.1 2-4-.1-.9-1.3-1.7-1.6-1.6z"/>
  <circle fill="#534AB7" cx="17.9" cy="40.5" r="3.5"/>
  <circle fill="#534AB7" cx="54.2" cy="40.5" r="3.5"/>
</svg>
