<svg xmlns="http://www.w3.org/2000/svg" viewBox="0 0 512 512">
  <rect width="512" height="512" fill="#4F46E5"/>
  <path fill="white" d="M 52,285 C 52,264 60,248 80,243 L 148,233 C 166,196 192,165 226,155 L 312,152 C 348,152 380,172 406,212 L 434,252 C 445,262 456,276 456,298 L 456,316 Q 455,323 447,323 L 68,323 C 56,323 52,310 52,285 Z"/>
  <circle fill="white" cx="130" cy="358" r="44"/>
  <circle fill="white" cx="382" cy="358" r="44"/>
  <path fill="#4F46E5" d="M 84,323 A 46,46 0 0 0 176,323 Z"/>
  <path fill="#4F46E5" d="M 336,323 A 46,46 0 0 0 428,323 Z"/>
</svg>
